<svg width="30" height="34" viewBox="0 0 30 34" fill="none" xmlns="http://www.w3.org/2000/svg">
<g id="icon">
<g id="Vector" filter="url(#filter0_d_538_3225)">
<path d="M15 19C17.206 19 19 17.206 19 15C19 12.794 17.206 11 15 11C12.794 11 11 12.794 11 15C11 17.206 12.794 19 15 19ZM15 13C16.103 13 17 13.897 17 15C17 16.103 16.103 17 15 17C13.897 17 13 16.103 13 15C13 13.897 13.897 13 15 13Z" fill="white"/>
</g>
<g id="Vector_2" filter="url(#filter1_d_538_3225)">
<path d="M14.4201 26.814C14.5893 26.9349 14.7921 26.9998 15.0001 26.9998C15.2081 26.9998 15.4108 26.9349 15.5801 26.814C15.8841 26.599 23.0291 21.44 23.0001 15C23.0001 10.589 19.4111 7 15.0001 7C10.5891 7 7.00009 10.589 7.00009 14.995C6.97109 21.44 14.1161 26.599 14.4201 26.814ZM15.0001 9C18.3091 9 21.0001 11.691 21.0001 15.005C21.0211 19.443 16.6121 23.428 15.0001 24.735C13.3891 23.427 8.97909 19.441 9.00009 15C9.00009 11.691 11.6911 9 15.0001 9Z" fill="white"/>
</g>
</g>
<defs>
<filter id="filter0_d_538_3225" x="4" y="4" width="22" height="22" filterUnits="userSpaceOnUse" color-interpolation-filters="sRGB">
<feFlood flood-opacity="0" result="BackgroundImageFix"/>
<feColorMatrix in="SourceAlpha" type="matrix" values="0 0 0 0 0 0 0 0 0 0 0 0 0 0 0 0 0 0 127 0" result="hardAlpha"/>
<feOffset/>
<feGaussianBlur stdDeviation="3.5"/>
<feColorMatrix type="matrix" values="0 0 0 0 1 0 0 0 0 0.15 0 0 0 0 0.76 0 0 0 1 0"/>
<feBlend mode="normal" in2="BackgroundImageFix" result="effect1_dropShadow_538_3225"/>
<feBlend mode="normal" in="SourceGraphic" in2="effect1_dropShadow_538_3225" result="shape"/>
</filter>
<filter id="filter1_d_538_3225" x="0" y="0" width="30" height="33.9998" filterUnits="userSpaceOnUse" color-interpolation-filters="sRGB">
<feFlood flood-opacity="0" result="BackgroundImageFix"/>
<feColorMatrix in="SourceAlpha" type="matrix" values="0 0 0 0 0 0 0 0 0 0 0 0 0 0 0 0 0 0 127 0" result="hardAlpha"/>
<feOffset/>
<feGaussianBlur stdDeviation="3.5"/>
<feColorMatrix type="matrix" values="0 0 0 0 1 0 0 0 0 0.15 0 0 0 0 0.76 0 0 0 1 0"/>
<feBlend mode="normal" in2="BackgroundImageFix" result="effect1_dropShadow_538_3225"/>
<feBlend mode="normal" in="SourceGraphic" in2="effect1_dropShadow_538_3225" result="shape"/>
</filter>
</defs>
</svg>
