<svg width="282" height="282" viewBox="0 0 282 282" fill="none" xmlns="http://www.w3.org/2000/svg">
<g id="Group">
<g id="Star 1" style="mix-blend-mode:hard-light" filter="url(#filter0_f_579_2998)">
<path d="M167.147 38.5251C167.736 37.617 169.143 37.9939 169.2 39.0752L172.981 111.116C173.092 113.228 174.55 115.029 176.593 115.576L246.276 134.242C247.322 134.522 247.398 135.977 246.388 136.365L179.041 162.223C177.067 162.981 175.805 164.924 175.916 167.036L179.696 239.077C179.753 240.158 178.393 240.68 177.712 239.839L132.308 183.779C130.977 182.135 128.739 181.536 126.764 182.294L59.4181 208.151C58.4073 208.54 57.4904 207.407 58.08 206.499L97.3658 145.995C98.5176 144.221 98.3962 141.907 97.065 140.263L51.6619 84.2036C50.9805 83.3622 51.7738 82.1403 52.8197 82.4205L122.503 101.087C124.546 101.634 126.709 100.803 127.861 99.0294L167.147 38.5251Z" stroke="#F32E7C" stroke-width="3.76458"/>
</g>
<g id="Star 1_2" style="mix-blend-mode:hard-light" filter="url(#filter1_f_579_2998)">
<path d="M167.632 38.8405C167.729 38.6908 167.821 38.6412 167.888 38.6177C167.973 38.5879 168.092 38.5784 168.223 38.6135C168.355 38.6487 168.453 38.7163 168.512 38.7847C168.558 38.8387 168.612 38.9273 168.622 39.1055L172.402 111.146C172.526 113.509 174.158 115.523 176.443 116.135L246.126 134.801C246.299 134.848 246.374 134.919 246.417 134.976C246.472 135.048 246.518 135.158 246.525 135.293C246.532 135.429 246.498 135.543 246.451 135.62C246.414 135.681 246.347 135.76 246.18 135.824L178.834 161.682C176.625 162.53 175.213 164.704 175.337 167.067L179.118 239.107C179.127 239.285 179.082 239.379 179.042 239.438C178.99 239.512 178.9 239.589 178.773 239.638C178.646 239.687 178.527 239.69 178.439 239.669C178.37 239.653 178.274 239.613 178.162 239.474L132.759 183.415C131.269 181.576 128.766 180.905 126.557 181.753L59.2105 207.611C59.0439 207.675 58.9408 207.661 58.8726 207.641C58.7862 207.615 58.6846 207.553 58.599 207.447C58.5134 207.341 58.4738 207.229 58.4664 207.139C58.4605 207.068 58.4686 206.964 58.5658 206.815L97.8515 146.31C99.14 144.326 99.0042 141.738 97.515 139.899L52.112 83.8391C51.9997 83.7004 51.9808 83.5981 51.9792 83.5269C51.9772 83.4367 52.0048 83.3209 52.0788 83.2069C52.1529 83.0928 52.2475 83.0205 52.3307 82.9856C52.3964 82.9581 52.4974 82.9338 52.6699 82.9799L122.353 101.646C124.638 102.258 127.058 101.329 128.347 99.3448L167.632 38.8405Z" stroke="#FF26C2" stroke-width="4.92292"/>
</g>
<g id="Star 1_3" style="mix-blend-mode:hard-light" filter="url(#filter2_ddi_579_2998)">
<path d="M167.147 38.5251C167.736 37.617 169.143 37.9939 169.2 39.0752L172.981 111.116C173.092 113.228 174.55 115.029 176.593 115.576L246.276 134.242C247.322 134.522 247.398 135.977 246.388 136.365L179.041 162.223C177.067 162.981 175.805 164.924 175.916 167.036L179.696 239.077C179.753 240.158 178.393 240.68 177.712 239.839L132.308 183.779C130.977 182.135 128.739 181.536 126.764 182.294L59.4181 208.151C58.4073 208.54 57.4904 207.407 58.08 206.499L97.3658 145.995C98.5176 144.221 98.3962 141.907 97.065 140.263L51.6619 84.2036C50.9805 83.3622 51.7738 82.1403 52.8197 82.4205L122.503 101.087C124.546 101.634 126.709 100.803 127.861 99.0294L167.147 38.5251Z" stroke="#FB37FF" stroke-opacity="0.2" stroke-width="3.76458"/>
</g>
<g id="Star 1_4" filter="url(#filter3_f_579_2998)">
<path d="M166.539 38.1308C167.511 36.6345 169.83 37.2556 169.923 39.0372L173.704 111.078C173.798 112.877 175.04 114.41 176.78 114.877L246.463 133.543C248.187 134.004 248.313 136.401 246.647 137.041L179.301 162.898C177.619 163.544 176.544 165.199 176.639 166.998L180.419 239.039C180.513 240.821 178.272 241.681 177.149 240.295L131.746 184.235C130.612 182.835 128.706 182.324 127.024 182.97L59.6776 208.827C58.0121 209.467 56.5013 207.601 57.4728 206.105L96.7586 145.601C97.7396 144.09 97.6362 142.119 96.5024 140.719L51.0993 84.6592C49.9765 83.2728 51.2837 81.2596 53.007 81.7212L122.69 100.387C124.43 100.853 126.273 100.146 127.254 98.6351L166.539 38.1308Z" stroke="#FB37FF" stroke-width="2.31667"/>
</g>
<g id="Star 1_5" filter="url(#filter4_f_579_2998)">
<path d="M166.054 37.8154C167.331 35.8485 170.379 36.665 170.501 39.0069L174.282 111.047C174.363 112.596 175.433 113.916 176.93 114.317L246.613 132.983C248.879 133.59 249.044 136.741 246.855 137.582L179.508 163.439C178.061 163.995 177.136 165.42 177.217 166.968L180.998 239.009C181.121 241.35 178.175 242.481 176.699 240.659L131.296 184.599C130.32 183.394 128.679 182.955 127.232 183.511L59.8852 209.368C57.6959 210.209 55.71 207.757 56.9871 205.79L96.2728 145.285C97.1172 143.985 97.0282 142.289 96.0523 141.084L50.6493 85.0237C49.1733 83.2014 50.8916 80.555 53.1569 81.1618L122.84 99.8279C124.338 100.229 125.923 99.6202 126.768 98.3197L166.054 37.8154Z" stroke="white" stroke-width="1.15833"/>
</g>
</g>
<defs>
<filter id="filter0_f_579_2998" x="32.1426" y="18.7546" width="234.219" height="240.763" filterUnits="userSpaceOnUse" color-interpolation-filters="sRGB">
<feFlood flood-opacity="0" result="BackgroundImageFix"/>
<feBlend mode="normal" in="SourceGraphic" in2="BackgroundImageFix" result="shape"/>
<feGaussianBlur stdDeviation="8.6875" result="effect1_foregroundBlur_579_2998"/>
</filter>
<filter id="filter1_f_579_2998" x="43.7259" y="30.338" width="211.053" height="217.597" filterUnits="userSpaceOnUse" color-interpolation-filters="sRGB">
<feFlood flood-opacity="0" result="BackgroundImageFix"/>
<feBlend mode="normal" in="SourceGraphic" in2="BackgroundImageFix" result="shape"/>
<feGaussianBlur stdDeviation="2.89583" result="effect1_foregroundBlur_579_2998"/>
</filter>
<filter id="filter2_ddi_579_2998" x="41.9884" y="34.3921" width="214.528" height="221.072" filterUnits="userSpaceOnUse" color-interpolation-filters="sRGB">
<feFlood flood-opacity="0" result="BackgroundImageFix"/>
<feColorMatrix in="SourceAlpha" type="matrix" values="0 0 0 0 0 0 0 0 0 0 0 0 0 0 0 0 0 0 127 0" result="hardAlpha"/>
<feOffset dy="3.76458"/>
<feGaussianBlur stdDeviation="1.44792"/>
<feColorMatrix type="matrix" values="0 0 0 0 0.3 0 0 0 0 0 0 0 0 0 0.26 0 0 0 0.7 0"/>
<feBlend mode="multiply" in2="BackgroundImageFix" result="effect1_dropShadow_579_2998"/>
<feColorMatrix in="SourceAlpha" type="matrix" values="0 0 0 0 0 0 0 0 0 0 0 0 0 0 0 0 0 0 127 0" result="hardAlpha"/>
<feOffset dy="5.79167"/>
<feGaussianBlur stdDeviation="3.76458"/>
<feColorMatrix type="matrix" values="0 0 0 0 0.6 0 0 0 0 0 0 0 0 0 0.6 0 0 0 1 0"/>
<feBlend mode="color-dodge" in2="effect1_dropShadow_579_2998" result="effect2_dropShadow_579_2998"/>
<feBlend mode="normal" in="SourceGraphic" in2="effect2_dropShadow_579_2998" result="shape"/>
<feColorMatrix in="SourceAlpha" type="matrix" values="0 0 0 0 0 0 0 0 0 0 0 0 0 0 0 0 0 0 127 0" result="hardAlpha"/>
<feOffset dx="-0.376458" dy="0.752917"/>
<feGaussianBlur stdDeviation="0.188229"/>
<feComposite in2="hardAlpha" operator="arithmetic" k2="-1" k3="1"/>
<feColorMatrix type="matrix" values="0 0 0 0 1 0 0 0 0 1 0 0 0 0 1 0 0 0 0.5 0"/>
<feBlend mode="normal" in2="shape" result="effect3_innerShadow_579_2998"/>
</filter>
<filter id="filter3_f_579_2998" x="48.9384" y="35.5505" width="200.628" height="207.172" filterUnits="userSpaceOnUse" color-interpolation-filters="sRGB">
<feFlood flood-opacity="0" result="BackgroundImageFix"/>
<feBlend mode="normal" in="SourceGraphic" in2="BackgroundImageFix" result="shape"/>
<feGaussianBlur stdDeviation="0.289583" result="effect1_foregroundBlur_579_2998"/>
</filter>
<filter id="filter4_f_579_2998" x="49.1315" y="35.7435" width="200.242" height="206.785" filterUnits="userSpaceOnUse" color-interpolation-filters="sRGB">
<feFlood flood-opacity="0" result="BackgroundImageFix"/>
<feBlend mode="normal" in="SourceGraphic" in2="BackgroundImageFix" result="shape"/>
<feGaussianBlur stdDeviation="0.193056" result="effect1_foregroundBlur_579_2998"/>
</filter>
</defs>
</svg>
